<?xml version="1.0" encoding="UTF-8" standalone="no"?>
<svg
   xmlns:dc="http://purl.org/dc/elements/1.1/"
   xmlns:cc="http://creativecommons.org/ns#"
   xmlns:rdf="http://www.w3.org/1999/02/22-rdf-syntax-ns#"
   xmlns:svg="http://www.w3.org/2000/svg"
   xmlns="http://www.w3.org/2000/svg"
   xmlns:sodipodi="http://sodipodi.sourceforge.net/DTD/sodipodi-0.dtd"
   xmlns:inkscape="http://www.inkscape.org/namespaces/inkscape"
   width="250"
   height="250"
   viewBox="0 0 66.145832 66.145832"
   version="1.1"
   id="svg3185"
   sodipodi:docname="jagged-bits-logo.svg"
   inkscape:version="1.0.1 (3bc2e813f5, 2020-09-07)"
   inkscape:export-filename="C:\Users\J\Documents\2021 Solidus Meetup\jagged-bits-logo.png"
   inkscape:export-xdpi="96"
   inkscape:export-ydpi="96">
  <defs
     id="defs3179" />
  <sodipodi:namedview
     id="base"
     pagecolor="#ffffff"
     bordercolor="#666666"
     borderopacity="1.0"
     inkscape:pageopacity="0.0"
     inkscape:pageshadow="2"
     inkscape:zoom="2.0000001"
     inkscape:cx="148.84085"
     inkscape:cy="269.69785"
     inkscape:document-units="px"
     inkscape:current-layer="layer1"
     inkscape:document-rotation="0"
     showgrid="false"
     inkscape:pagecheckerboard="false"
     units="px"
     inkscape:window-width="1278"
     inkscape:window-height="1368"
     inkscape:window-x="-7"
     inkscape:window-y="0"
     inkscape:window-maximized="0"
     inkscape:snap-intersection-paths="true"
     inkscape:snap-nodes="true"
     inkscape:snap-smooth-nodes="true" />
  <metadata
     id="metadata3182">
    <rdf:RDF>
      <cc:Work
         rdf:about="">
        <dc:format>image/svg+xml</dc:format>
        <dc:type
           rdf:resource="http://purl.org/dc/dcmitype/StillImage" />
        <dc:title></dc:title>
      </cc:Work>
    </rdf:RDF>
  </metadata>
  <g
     inkscape:label="logo"
     inkscape:groupmode="layer"
     id="layer1">
    <text
       xml:space="preserve"
       style="font-size:10.5833px;line-height:1.25;font-family:Trench;-inkscape-font-specification:Trench;stroke-width:0.264583"
       x="3.5151787"
       y="-16.02619"
       id="text3801"><tspan
         sodipodi:role="line"
         id="tspan3799"
         x="3.5151787"
         y="-16.02619"
         style="font-style:normal;font-variant:normal;font-weight:normal;font-stretch:normal;font-family:'DO 4 Brain';-inkscape-font-specification:'DO 4 Brain';stroke-width:0.264583" /></text>
    <path
       id="rect100-1-8-8-74"
       style="fill:none;fill-rule:evenodd;stroke:#ff0066;stroke-width:1.37872;stroke-miterlimit:4;stroke-dasharray:none;stroke-opacity:1"
       d="M 38.471949,50.257754 C 37.865378,47.22374 35.418661,44.757144 32.900964,44.088702 31.599609,43.744443 30.22248,43.728063 28.902098,43.972337 27.775051,41.13767 24.779514,39.3201 21.767818,39.351573 c -3.93107,-0.04081 -7.644153,2.32621 -9.666732,5.631336 5.273733,5.273724 10.547464,10.547457 15.821195,15.821188 z"
       sodipodi:nodetypes="ccccccc" />
    <g
       aria-label="ytes"
       id="text188-2-9-0-1"
       style="font-style:normal;font-weight:normal;font-size:5.46946px;line-height:1.25;font-family:sans-serif;fill:#ff0066;fill-opacity:1;stroke:#ff0066;stroke-width:0.3;stroke-miterlimit:4;stroke-dasharray:none"
       transform="matrix(1.8383056,0,0,1.8383056,-120.72617,-139.24938)">
      <path
         d="m 89.198855,96.666162 q 0.09298,0 0.153145,0.06563 0.06563,0.06563 0.06563,0.158614 v 2.887875 q 0,0.344579 -0.131267,0.645399 -0.131267,0.30082 -0.355515,0.52507 -0.224248,0.22425 -0.525068,0.35551 -0.300821,0.13127 -0.645397,0.13127 -0.09298,0 -0.158614,-0.0656 -0.06563,-0.0602 -0.06563,-0.15315 0,-0.093 0.06563,-0.15861 0.06563,-0.0602 0.158614,-0.0602 0.251596,0 0.470374,-0.0984 0.224248,-0.093 0.388332,-0.26253 0.169553,-0.16408 0.262534,-0.38833 0.09845,-0.21878 0.09845,-0.470379 v -0.317228 q -0.229717,0.246125 -0.546946,0.393801 -0.311759,0.142206 -0.672744,0.142206 -0.344576,0 -0.650865,-0.131267 -0.300821,-0.131267 -0.525069,-0.355515 -0.224247,-0.224248 -0.355514,-0.525068 -0.131267,-0.30629 -0.131267,-0.650866 v -1.443938 q 0,-0.09298 0.06016,-0.158614 0.06563,-0.06563 0.158614,-0.06563 0.09298,0 0.153145,0.06563 0.06563,0.06563 0.06563,0.158614 v 1.443938 q 0,0.251595 0.09298,0.475843 0.09845,0.224248 0.262534,0.393801 0.169553,0.164084 0.393801,0.262534 0.224248,0.09298 0.475843,0.09298 0.251596,0 0.470374,-0.09298 0.224248,-0.09845 0.388332,-0.262534 0.169553,-0.169553 0.262534,-0.393801 0.09845,-0.224248 0.09845,-0.475843 v -1.443938 q 0,-0.09298 0.06016,-0.158614 0.06563,-0.06563 0.158614,-0.06563 z"
         style="font-style:normal;font-variant:normal;font-weight:bold;font-stretch:normal;font-family:'DO 4 Brain';-inkscape-font-specification:'DO 4 Brain Bold';fill:#ff0066;stroke:#ff0066;stroke-width:0.3;stroke-miterlimit:4;stroke-dasharray:none"
         id="path924-0-0-4-50" />
      <path
         d="m 92.566029,96.682698 q 0.09298,0 0.153145,0.06563 0.06563,0.06563 0.06563,0.158614 0,0.09298 -0.06563,0.158615 -0.06016,0.06016 -0.153145,0.06016 H 91.34087 v 2.669096 q 0,0.09298 -0.06563,0.158615 -0.06016,0.06016 -0.153145,0.06016 -0.09298,0 -0.158614,-0.06016 -0.06016,-0.06563 -0.06016,-0.158615 v -2.669096 h -0.377393 q -0.09298,0 -0.158615,-0.06016 -0.06016,-0.06563 -0.06016,-0.158615 0,-0.09298 0.06016,-0.158614 0.06563,-0.06563 0.158615,-0.06563 h 0.377386 v -1.203282 q 0,-0.09298 0.06016,-0.153145 0.06563,-0.06563 0.158614,-0.06563 0.09298,0 0.153145,0.06563 0.06563,0.06016 0.06563,0.153145 v 1.203282 z"
         style="font-style:normal;font-variant:normal;font-weight:bold;font-stretch:normal;font-family:'DO 4 Brain';-inkscape-font-specification:'DO 4 Brain Bold';fill:#ff0066;stroke:#ff0066;stroke-width:0.3;stroke-miterlimit:4;stroke-dasharray:none"
         id="path926-0-3-5-0" />
      <path
         d="m 94.570883,97.14773 q -0.251595,0 -0.475843,0.09845 -0.224248,0.09298 -0.393801,0.262534 -0.164084,0.164083 -0.262534,0.388331 -0.09298,0.218779 -0.09298,0.470374 0,0.1969 0.05469,0.371923 0.06016,0.175023 0.164084,0.322698 l 1.695533,-1.695532 Q 94.948273,97.147729 94.57088,97.147729 Z m 1.438468,1.000911 q 0.09298,0 0.153145,0.06563 0.06563,0.06016 0.06563,0.153145 0,0.344576 -0.131267,0.650866 -0.131267,0.30082 -0.355515,0.525068 -0.224247,0.224248 -0.525068,0.355515 -0.30082,0.131265 -0.645396,0.131265 -0.344576,0 -0.645396,-0.125796 -0.295351,-0.131267 -0.525069,-0.355515 -0.0055,0 -0.0055,-0.0055 -0.0055,-0.0055 -0.0055,-0.0055 -0.224248,-0.229717 -0.355515,-0.525068 -0.125798,-0.30082 -0.125798,-0.645396 0,-0.344576 0.131267,-0.645396 0.131267,-0.300821 0.355515,-0.525069 0.224248,-0.224247 0.525068,-0.355515 0.30629,-0.131267 0.650866,-0.131267 0.333637,0 0.634457,0.125798 0.300821,0.125798 0.536007,0.360984 0.06563,0.06563 0.06563,0.158615 0,0.08751 -0.06563,0.153145 l -1.865085,1.865085 q 0.147675,0.10392 0.322698,0.164084 0.175022,0.05469 0.371923,0.05469 0.251595,0 0.470373,-0.09298 0.224248,-0.09845 0.388332,-0.262534 0.169553,-0.169553 0.262534,-0.393801 0.09845,-0.224248 0.09845,-0.475843 0,-0.09298 0.06016,-0.153145 0.06563,-0.06563 0.158614,-0.06563 z"
         style="font-style:normal;font-variant:normal;font-weight:bold;font-stretch:normal;font-family:'DO 4 Brain';-inkscape-font-specification:'DO 4 Brain Bold';fill:#ff0066;stroke:#ff0066;stroke-width:0.3;stroke-miterlimit:4;stroke-dasharray:none"
         id="path928-7-5-5-7" />
      <path
         d="m 97.238953,99.997063 q -0.09298,0 -0.158614,-0.06016 -0.06016,-0.06563 -0.06016,-0.158615 0,-0.09298 0.06016,-0.153145 0.06563,-0.06563 0.158614,-0.06563 h 1.8268 q 0.142206,0 0.246125,-0.10392 0.10939,-0.109389 0.10939,-0.251595 0,-0.04376 -0.01641,-0.08751 -0.01094,-0.04923 -0.05469,-0.09845 -0.04376,-0.04922 -0.131267,-0.09298 -0.08204,-0.04923 -0.224248,-0.09298 L 97.2663,98.257774 q -0.06563,-0.02188 -0.191431,-0.06563 -0.120328,-0.04923 -0.240656,-0.136737 -0.120328,-0.09298 -0.207839,-0.235186 -0.08751,-0.142206 -0.08751,-0.350046 0,-0.164084 0.06016,-0.30629 0.06563,-0.147675 0.169554,-0.251595 0.109389,-0.109389 0.251595,-0.169553 0.147675,-0.06563 0.311759,-0.06563 h 1.8268 q 0.09298,0 0.153144,0.06563 0.06563,0.06016 0.06563,0.153145 0,0.09298 -0.06563,0.158614 -0.06016,0.06016 -0.153144,0.06016 h -1.8268 q -0.142206,0 -0.251595,0.109389 -0.10392,0.10392 -0.10392,0.246126 0,0.04376 0.01094,0.09298 0.01641,0.04376 0.06016,0.09298 0.04376,0.04923 0.125798,0.09845 0.08751,0.04376 0.229717,0.08751 l 1.728349,0.574294 q 0.06563,0.02188 0.185962,0.0711 0.125797,0.04375 0.246126,0.136736 0.120328,0.08751 0.207839,0.229718 0.08751,0.142206 0.08751,0.350045 0,0.164084 -0.06563,0.311759 -0.06016,0.142206 -0.169553,0.251595 -0.10392,0.10392 -0.251595,0.169554 -0.142206,0.06016 -0.30629,0.06016 z"
         style="font-style:normal;font-variant:normal;font-weight:bold;font-stretch:normal;font-family:'DO 4 Brain';-inkscape-font-specification:'DO 4 Brain Bold';fill:#ff0066;stroke:#ff0066;stroke-width:0.3;stroke-miterlimit:4;stroke-dasharray:none"
         id="path930-7-5-8-9" />
    </g>
    <path
       id="path1773-0-1"
       style="fill:#ffffff;fill-rule:evenodd;stroke:#ff0066;stroke-width:1.10298;stroke-linecap:butt;stroke-linejoin:miter;stroke-miterlimit:4;stroke-dasharray:none;stroke-opacity:1"
       d="m 16.535409,15.839679 c 1.301686,1.074381 3.052785,1.632785 4.74976,1.606442 2.662272,-0.0364 5.127826,-1.624767 6.583893,-3.80327 2.502688,1.068956 5.643874,0.47193 7.733844,-1.238908 v 0 C 33.191416,9.9925089 30.333751,6.8592823 27.922281,4.4478482 Z"
       sodipodi:nodetypes="ccccccc" />
    <path
       style="fill:#00ffcc;fill-rule:evenodd;stroke:#217867;stroke-width:1.10298;stroke-miterlimit:4;stroke-dasharray:none;stroke-opacity:1"
       d="m 38.32353,35.012729 -5.729746,5.767022 c -0.04301,-0.0036 -0.08621,-0.0074 -0.129234,-0.01104 -0.04284,-0.0036 -0.08585,-0.0074 -0.128681,-0.0092 -0.0432,-0.0036 -0.0864,-0.0055 -0.129601,-0.0074 -0.04301,-0.0019 -0.08621,-0.0036 -0.129232,-0.0055 -0.04301,-0.0015 -0.08621,-0.0036 -0.129233,-0.0036 -0.0432,-0.0015 -0.0864,-0.0036 -0.1296,-0.0036 l -0.129602,-0.0015 c -0.01104,-2e-5 -0.02041,-2e-5 -0.03143,0 -0.0432,0 -0.0864,2.94e-4 -0.129601,9.73e-4 -0.04301,3.31e-4 -0.08621,9.72e-4 -0.129233,0.0019 -0.0432,9.72e-4 -0.0864,0.0019 -0.1296,0.0036 -0.04301,0.0015 -0.08621,0.0036 -0.129233,0.0055 -0.04301,0.0019 -0.08621,0.0036 -0.129233,0.0074 -0.04301,0.0036 -0.08621,0.0055 -0.129232,0.0092 -0.04301,0.0036 -0.08621,0.0074 -0.129233,0.01104 -0.04301,0.0036 -0.08585,0.0092 -0.128682,0.01287 l -0.01655,0.0019 c -2.391516,-3.658025 -6.911063,-4.677431 -10.836424,-4.260979 -2.82634,0.30549 -5.718491,2.119749 -7.457105,3.776374 L 7.0152438,35.009527 Z"
       id="path3123"
       sodipodi:nodetypes="ccscsccccccccsssscccccc" />
    <path
       style="fill:#2ad4ff;fill-opacity:1;fill-rule:evenodd;stroke:#0055d4;stroke-width:1.10298;stroke-miterlimit:4;stroke-dasharray:none;stroke-opacity:1"
       d="m 44.924578,21.520682 c -3.152808,-3.046222 -6.314809,-6.087847 -9.396673,-9.169537 -2.104989,1.882866 -5.023795,2.341266 -7.623785,1.259497 -1.840052,2.842333 -5.526112,4.542563 -8.840227,3.479398 -0.886101,-0.286703 -1.793929,-0.681479 -2.485501,-1.297899 l -5.652017,5.652011 z"
       id="path173-5-6-1-3-1"
       sodipodi:nodetypes="ccccccc" />
    <g
       aria-label="JAGGED"
       transform="matrix(3.3970998,0,0,3.3970998,19.94034,-402.32453)"
       id="text49-0-2-3-5"
       style="font-style:normal;font-variant:normal;font-weight:normal;font-stretch:normal;font-size:3.5466px;line-height:1.25;font-family:'LIBRARY 3 AM';-inkscape-font-specification:'LIBRARY 3 AM, Normal';font-variant-ligatures:normal;font-variant-position:normal;font-variant-caps:normal;font-variant-numeric:normal;font-variant-east-asian:normal;fill:#ff0066;fill-opacity:1;stroke:#ff0066;stroke-width:0.135285;stroke-miterlimit:4;stroke-dasharray:none;stroke-opacity:1">
      <path
         d="m -4.3522489,125.55199 h 1.0391539 v -0.14896 h -1.1881111 v 0.50007 h 1.0391539 v 1.31756 c 0,0.38481 -0.1613703,0.72706 -0.5922823,0.72706 -0.2411688,0 -0.4238187,-0.0479 -0.5869623,-0.15783 l 0.1010781,-0.1862 c 0.1560504,0.094 0.3050076,0.14187 0.4397784,0.14187 0.1879698,0 0.4149522,-0.0904 0.4149522,-0.52135 v -1.11895 h -0.1489572 v 1.11895 c 0,0.25713 -0.081572,0.37239 -0.265995,0.37239 -0.1702368,0 -0.3511134,-0.10108 -0.4929774,-0.20925 l -0.2393956,0.44333 c 0.1861966,0.16137 0.4149523,0.26599 0.7784788,0.26599 0.4929775,0 0.7412395,-0.37771 0.7412395,-0.87601 v -1.46652 h -1.0391539 z"
         style="font-style:normal;font-variant:normal;font-weight:normal;font-stretch:normal;font-size:3.5466px;font-family:'LIBRARY 3 AM';-inkscape-font-specification:'LIBRARY 3 AM, Normal';font-variant-ligatures:normal;font-variant-position:normal;font-variant-caps:normal;font-variant-numeric:normal;font-variant-east-asian:normal;fill:#ff0066;stroke:#ff0066;stroke-width:0.135285;stroke-miterlimit:4;stroke-dasharray:none;stroke-opacity:1"
         id="path959-5-6-5-53" />
      <path
         d="m -1.4263065,125.40303 h -0.5213502 l -0.5976022,1.64385 h 1.3335218 l -0.4752445,-1.30692 -0.3475668,0.95581 h 0.1578237 l 0.1897431,-0.51958 0.2624484,0.72173 h -0.9079296 l 0.4894308,-1.34593 h 0.3121008 l 0.85827732,2.35849 H -0.8996363 l -0.2393955,-0.66145 h -1.4807057 l -0.2943678,0.8104 h 0.5426299 l 0.1666902,-0.45928 h -0.1578237 l -0.1134913,0.31033 h -0.2252091 l 0.1861965,-0.51249 h 1.2714563 l 0.2393955,0.66144 h 0.54440314 z"
         style="font-style:normal;font-variant:normal;font-weight:normal;font-stretch:normal;font-size:3.5466px;font-family:'LIBRARY 3 AM';-inkscape-font-specification:'LIBRARY 3 AM, Normal';font-variant-ligatures:normal;font-variant-position:normal;font-variant-caps:normal;font-variant-numeric:normal;font-variant-east-asian:normal;fill:#ff0066;stroke:#ff0066;stroke-width:0.135285;stroke-miterlimit:4;stroke-dasharray:none;stroke-opacity:1"
         id="path961-6-7-4-6" />
      <path
         d="m 1.8773445,126.74542 v -0.14896 H 0.89670954 v 0.50007 H 1.7283873 v 0.63662 c -0.2252091,0.14186 -0.4734711,0.21457 -0.75542586,0.21457 -0.69690696,0 -1.01787429,-0.58874 -1.01787429,-1.21826 v -0.0248 c 0,-0.58696 0.34579353,-1.19166 0.99659469,-1.19166 0.24471546,0 0.43623186,0.0497 0.62242836,0.16137 l -0.1028514,0.18443 c -0.1471839,-0.0904 -0.2855013,-0.14364 -0.50893716,-0.14364 -0.50539054,0 -0.78379867,0.50716 -0.78379867,0.9895 v 0.0248 c 0,0.51248 0.24826202,1.0161 0.78911857,1.0161 0.17201016,0 0.32983386,-0.0284 0.46105806,-0.0887 l 0.076252,-0.0355 v -0.32452 H 1.3559943 v 0.22876 c -0.092212,0.0408 -0.2181159,0.0709 -0.38835276,0.0709 -0.47169784,0 -0.64016136,-0.4717 -0.64016136,-0.86714 v -0.0248 c 0,-0.37594 0.20570282,-0.84054 0.63484146,-0.84054 0.25358196,0 0.37593966,0.078 0.56036286,0.20925 l 0.2464887,-0.4451 c -0.2323023,-0.17378 -0.4770177,-0.26422 -0.81749136,-0.26422 -0.73059967,0 -1.14555191,0.66144 -1.14555191,1.34061 v 0.0248 c 0,0.74478 0.40785904,1.36721 1.16683151,1.36721 0.43977846,0 0.73414626,-0.16314 0.90438306,-0.28373 v -0.86537 H 1.0456668 v -0.20215 z"
         style="font-style:normal;font-variant:normal;font-weight:normal;font-stretch:normal;font-size:3.5466px;font-family:'LIBRARY 3 AM';-inkscape-font-specification:'LIBRARY 3 AM, Normal';font-variant-ligatures:normal;font-variant-position:normal;font-variant-caps:normal;font-variant-numeric:normal;font-variant-east-asian:normal;fill:#ff0066;stroke:#ff0066;stroke-width:0.135285;stroke-miterlimit:4;stroke-dasharray:none;stroke-opacity:1"
         id="path963-5-8-9-44" />
      <path
         d="m 4.436211,126.74542 v -0.14896 H 3.455576 v 0.50007 h 0.8316778 v 0.63662 c -0.2252091,0.14186 -0.4734711,0.21457 -0.7554259,0.21457 -0.6969069,0 -1.0178743,-0.58874 -1.0178743,-1.21826 v -0.0248 c 0,-0.58696 0.3457936,-1.19166 0.9965947,-1.19166 0.2447155,0 0.4362319,0.0497 0.6224284,0.16137 l -0.1028514,0.18443 c -0.1471839,-0.0904 -0.2855013,-0.14364 -0.5089372,-0.14364 -0.5053905,0 -0.7837986,0.50716 -0.7837986,0.9895 v 0.0248 c 0,0.51248 0.248262,1.0161 0.7891185,1.0161 0.1720102,0 0.3298339,-0.0284 0.4610581,-0.0887 l 0.076252,-0.0355 v -0.32452 H 3.9148608 v 0.22876 c -0.092212,0.0408 -0.2181159,0.0709 -0.3883528,0.0709 -0.4716978,0 -0.6401613,-0.4717 -0.6401613,-0.86714 v -0.0248 c 0,-0.37594 0.2057028,-0.84054 0.6348414,-0.84054 0.253582,0 0.3759397,0.078 0.5603629,0.20925 l 0.2464887,-0.4451 c -0.2323023,-0.17378 -0.4770177,-0.26422 -0.8174914,-0.26422 -0.7305996,0 -1.1455519,0.66144 -1.1455519,1.34061 v 0.0248 c 0,0.74478 0.4078591,1.36721 1.1668315,1.36721 0.4397785,0 0.7341463,-0.16314 0.9043831,-0.28373 v -0.86537 H 3.6045333 v -0.20215 z"
         style="font-style:normal;font-variant:normal;font-weight:normal;font-stretch:normal;font-size:3.5466px;font-family:'LIBRARY 3 AM';-inkscape-font-specification:'LIBRARY 3 AM, Normal';font-variant-ligatures:normal;font-variant-position:normal;font-variant-caps:normal;font-variant-numeric:normal;font-variant-east-asian:normal;fill:#ff0066;stroke:#ff0066;stroke-width:0.135285;stroke-miterlimit:4;stroke-dasharray:none;stroke-opacity:1"
         id="path965-1-3-6-6" />
      <path
         d="m 5.5782112,127.55936 v -0.99482 h 0.9079297 v 0.20216 H 5.801647 v 0.14895 h 0.8334511 v -0.50007 H 5.429254 v 1.29274 h 1.122499 v 0.20216 H 5.2058181 v -2.35849 h 1.3211087 v 0.20215 H 5.429254 v 0.45929 H 5.5782112 V 125.9031 H 6.675884 v -0.50007 H 5.0568609 v 2.6564 h 1.6438493 v -0.50007 z"
         style="font-style:normal;font-variant:normal;font-weight:normal;font-stretch:normal;font-size:3.5466px;font-family:'LIBRARY 3 AM';-inkscape-font-specification:'LIBRARY 3 AM, Normal';font-variant-ligatures:normal;font-variant-position:normal;font-variant-caps:normal;font-variant-numeric:normal;font-variant-east-asian:normal;fill:#ff0066;stroke:#ff0066;stroke-width:0.135285;stroke-miterlimit:4;stroke-dasharray:none;stroke-opacity:1"
         id="path967-6-1-7-9" />
      <path
         id="path969-5-6-3-5"
         style="font-style:normal;font-variant:normal;font-weight:normal;font-stretch:normal;font-size:3.5466px;font-family:'LIBRARY 3 AM';-inkscape-font-specification:'LIBRARY 3 AM, Normal';font-variant-ligatures:normal;font-variant-position:normal;font-variant-caps:normal;font-variant-numeric:normal;font-variant-east-asian:normal;fill:#ff0066;stroke:#ff0066;stroke-width:0.135285;stroke-miterlimit:4;stroke-dasharray:none;stroke-opacity:1"
         d="M 8.158356,125.40303 H 7.321359 v 0.14896 h 0.836997 c 0.716414,0 1.039154,0.50539 1.039154,1.17747 0,0.71641 -0.416725,1.18102 -1.06398,1.18102 H 7.470316 v -2.00738 h 0.68804 c 0.423819,0 0.666761,0.29259 0.666761,0.82636 0,0.4983 -0.262448,0.8299 -0.666761,0.8299 H 7.842709 v -1.45588 H 7.693752 v 1.60484 h 0.464604 c 0.487658,0 0.815718,-0.39367 0.815718,-0.97886 0,-0.61179 -0.305007,-0.97532 -0.813944,-0.97532 H 7.321359 v 2.30529 H 8.13353 c 0.727053,0 1.212937,-0.53021 1.212937,-1.32997 0,-0.85296 -0.473471,-1.32643 -1.188111,-1.32643 z" />
    </g>
  </g>
</svg>
